<svg width="64" height="64" viewBox="0 0 64 64" fill="none" xmlns="http://www.w3.org/2000/svg">
<path d="M63.5 0.5H0.5V63.5H63.5V0.5Z" fill="#F7DF1E"/>
<path d="M42.7875 49.7023C44.0625 51.8023 45.7125 53.3023 48.6375 53.3023C51.5625 53.3023 52.6875 52.1023 52.6875 50.3773C52.6875 48.6523 51.1125 47.6023 48.4125 46.4773L46.9125 45.8773C42.6375 44.0773 39.7875 41.7523 39.7875 36.9523C39.7875 32.1523 43.1625 29.1523 48.4875 29.1523C53.8125 29.1523 54.9375 30.4273 56.8875 33.8773L52.3125 36.8023C51.2625 35.0023 50.2125 34.2523 48.4875 34.2523C46.7625 34.2523 45.6375 35.3773 45.6375 36.8023C45.6375 38.2273 46.7625 39.2773 49.3125 40.4023L50.8125 41.0023C55.8375 43.1773 58.6875 45.3523 58.6875 50.3023C58.6875 55.2523 54.4875 58.5523 48.8625 58.5523C43.2375 58.5523 39.7875 55.9273 38.0625 52.4773L42.8625 49.7023H42.7875ZM21.8625 50.2273C22.7625 51.8773 23.6625 53.3023 25.6875 53.3023C27.7125 53.3023 28.8375 52.5523 28.8375 49.5523V29.4523H34.7625V49.6273C34.7625 55.7773 31.1625 58.5523 25.9125 58.5523C20.6625 58.5523 18.4125 56.0773 17.0625 53.1523L21.8625 50.2273Z" fill="black"/>
</svg>
