<svg width="64" height="64" viewBox="0 0 64 64" fill="none" xmlns="http://www.w3.org/2000/svg">
<path d="M57.35 0.5H6.65C3.25345 0.5 0.5 3.25345 0.5 6.65V57.35C0.5 60.7466 3.25345 63.5 6.65 63.5H57.35C60.7466 63.5 63.5 60.7466 63.5 57.35V6.65C63.5 3.25345 60.7466 0.5 57.35 0.5Z" fill="#3178C6"/>
<path d="M57.35 0.5H6.65C3.25345 0.5 0.5 3.25345 0.5 6.65V57.35C0.5 60.7466 3.25345 63.5 6.65 63.5H57.35C60.7466 63.5 63.5 60.7466 63.5 57.35V6.65C63.5 3.25345 60.7466 0.5 57.35 0.5Z" fill="#3178C6"/>
<path fill-rule="evenodd" clip-rule="evenodd" d="M39.5172 50.5945V56.7445C40.4922 57.2695 41.6922 57.6445 43.0422 57.8695C44.3922 58.0945 45.8172 58.2445 47.3922 58.2445C48.9672 58.2445 50.2422 58.0945 51.5922 57.7945C52.9422 57.4945 54.0672 57.0445 55.1172 56.3695C56.0922 55.6945 56.9172 54.8695 57.5172 53.8195C58.1172 52.7695 58.4172 51.4945 58.4172 49.9195C58.4172 48.3445 58.2672 47.8195 57.8922 46.9945C57.5172 46.1695 57.0672 45.4195 56.4672 44.7445C55.8672 44.0695 55.1172 43.4695 54.2172 43.0195C53.3172 42.5695 52.3422 42.0445 51.2172 41.5195C50.3922 41.2195 49.7172 40.8445 49.0422 40.5445C48.3672 40.2445 47.8422 39.9445 47.3922 39.5695C46.9422 39.2695 46.5672 38.8945 46.3422 38.5195C46.1172 38.1445 45.9672 37.7695 45.9672 37.2445C45.9672 36.7195 46.0422 36.4195 46.2672 36.1195C46.4922 35.8195 46.7922 35.5195 47.1672 35.2195C47.5422 34.9945 48.0672 34.7695 48.6672 34.6195C49.2672 34.4695 49.8672 34.3945 50.6172 34.3945C51.3672 34.3945 51.6672 34.3945 52.2672 34.5445C52.8672 34.6195 53.3922 34.7695 53.9922 34.9195C54.5922 35.0695 55.1172 35.2945 55.6422 35.5195C56.1672 35.7445 56.6922 36.0445 57.1422 36.3445V30.5695C56.2422 30.1945 55.1922 29.9695 54.0672 29.7445C52.9422 29.5195 51.6672 29.5195 50.2422 29.5195C48.8172 29.5195 47.3922 29.6695 46.1172 29.9695C44.8422 30.2695 43.6422 30.7945 42.6672 31.4695C41.6922 32.1445 40.8672 32.9695 40.3422 34.0195C39.7422 35.0695 39.4422 36.2695 39.4422 37.6945C39.4422 39.1195 39.9672 41.0695 41.0172 42.4195C42.0672 43.6945 43.7172 44.8195 45.8172 45.7195C46.6422 46.0945 47.4672 46.3945 48.2172 46.7695C48.9672 47.1445 49.5672 47.4445 50.0922 47.8195C50.6172 48.1945 51.0672 48.5695 51.3672 49.0195C51.6672 49.4695 51.8172 49.9195 51.8172 50.4445C51.8172 50.9695 51.7422 51.1945 51.5172 51.5695C51.2922 51.9445 51.0672 52.1695 50.6172 52.4695C50.1672 52.7695 49.7172 52.9195 49.1172 53.0695C48.5172 53.2195 47.8422 53.2945 47.0922 53.2945C45.7422 53.2945 44.4672 53.0695 43.1172 52.6195C41.8422 52.1695 40.5672 51.4195 39.4422 50.5195L39.5172 50.5945ZM29.1672 35.4445H37.0422V30.4195H14.9922V35.4445H22.8672V57.9445H29.0922V35.4445H29.1672Z" fill="white"/>
</svg>
