<svg width="28" height="39" viewBox="0 0 28 39" fill="none" xmlns="http://www.w3.org/2000/svg">
<path d="M22.0708 5.27947C18.4289 1.41468 12.0552 0.254715 7.29557 2.58721C5.92474 3.25886 4.66292 4.14151 3.70156 5.34591C2.782 6.49694 2.15965 7.82018 1.78213 9.24081C1.04603 12.0103 1.41174 15.0126 2.36512 17.6808C3.41788 20.6279 5.10009 23.3012 6.72891 25.9533C8.46218 28.7743 10.2085 31.5873 11.9502 34.4029C12.3816 35.1015 12.8192 35.7956 13.2567 36.4906C13.7815 37.3244 15.0741 37.5784 15.8657 36.9848C15.9408 36.9283 16.0109 36.8682 16.0759 36.8044C16.26 36.866 16.4697 36.8497 16.6589 36.7116C18.9179 35.0673 20.5329 32.5534 21.8543 30.1242C23.1955 27.6584 24.1275 24.9257 24.7495 22.1922C25.3879 19.3847 25.7215 16.4111 25.5099 13.5333C25.2832 10.4516 24.2018 7.54094 22.0716 5.28021L22.0708 5.27947ZM22.2457 16.4396C22.2405 16.7531 22.2304 17.0661 22.2156 17.3794C22.2113 17.467 22.2054 17.5539 22.2019 17.6415C22.1948 17.8133 22.2064 17.6027 22.2088 17.5457C22.2031 17.7159 22.1848 17.8877 22.1703 18.0569C22.1163 18.7126 22.0413 19.3657 21.947 20.0161C21.7617 21.2944 21.4987 22.5605 21.1625 23.8068C20.9938 24.4329 20.8023 25.0517 20.6001 25.6672C20.5748 25.7387 20.5502 25.8101 20.5248 25.8807C20.4734 26.0253 20.4212 26.1699 20.3674 26.3138C20.2531 26.6221 20.134 26.9283 20.0099 27.2333C19.0335 29.6384 17.8869 31.9745 16.5205 34.1834C16.4732 34.2604 16.4283 34.338 16.3826 34.4157C16.3735 34.4003 16.3644 34.3841 16.3545 34.3688C14.6897 31.7264 12.9918 29.1039 11.304 26.4759C9.7012 23.9788 7.98391 21.5235 6.59413 18.897C6.56377 18.8399 6.43767 18.5901 6.43795 18.594C6.38484 18.4856 6.33093 18.3773 6.27936 18.268C6.12576 17.9448 5.98296 17.616 5.84873 17.2842C5.58107 16.6207 5.34755 15.9427 5.161 15.251C5.12004 15.0993 5.08146 14.9474 5.04522 14.7946C5.03144 14.7347 5.01767 14.6748 5.00395 14.6157C4.9317 14.302 5.00451 14.6693 5.02121 14.7026C4.90082 14.466 4.91022 14.0521 4.879 13.7884C4.80498 13.1753 4.77446 12.556 4.79196 11.9381C4.79403 11.8763 4.79615 11.8153 4.79822 11.7535C4.80852 11.4325 4.78498 11.8041 4.79078 11.8413C4.76824 11.7132 4.81637 11.5448 4.83114 11.4133C4.86582 11.1097 4.9126 10.8078 4.97312 10.508C5.033 10.2107 5.10662 9.91568 5.19335 9.62532C5.20373 9.59096 5.24637 9.50389 5.24739 9.46138C5.29593 9.33305 5.34531 9.20547 5.39958 9.07915C5.51017 8.82156 5.63307 8.56871 5.76845 8.323C5.83651 8.19972 5.91376 8.0822 5.98188 7.95972C5.98188 7.95972 5.98188 7.95972 5.98182 7.95892C6.02545 7.89741 6.06901 7.8351 6.11428 7.77428C6.28814 7.54189 6.47544 7.31898 6.67475 7.10804C6.77742 6.99996 6.8878 6.89934 6.99053 6.79205C7.03294 6.74745 7.04107 6.73807 7.03044 6.74602C7.07454 6.71411 7.11954 6.68373 7.14603 6.66266C7.37818 6.47585 7.61918 6.30123 7.86907 6.13961C7.99441 6.05877 8.12152 5.98021 8.25048 5.90553C8.32417 5.86273 8.39967 5.82302 8.47336 5.78023C8.48103 5.77569 8.48564 5.77296 8.49177 5.76933C9.05704 5.51438 9.62329 5.28499 10.2218 5.11741C10.3668 5.07684 10.5119 5.03946 10.6581 5.00521C10.6966 4.99612 10.7257 4.98928 10.7492 4.98362C10.7579 4.98222 10.7674 4.98075 10.7776 4.97844C11.0886 4.92546 11.3984 4.87817 11.7126 4.84739C12.2466 4.79643 12.7783 4.79289 13.3131 4.81075C13.3541 4.81429 13.3951 4.81783 13.4361 4.82137C13.5889 4.83631 13.7411 4.8537 13.8927 4.87433C14.1774 4.91288 14.4612 4.96271 14.7425 5.02231C15.0052 5.07762 15.2653 5.14192 15.5236 5.21515C15.6369 5.24727 15.7496 5.28263 15.8622 5.3172C15.9181 5.33892 15.9784 5.35553 16.0333 5.37651C16.5697 5.57685 17.0913 5.81666 17.5916 6.0948C17.8201 6.22137 18.0402 6.39818 18.2762 6.5066C18.2027 6.4725 18.1565 6.45091 18.1284 6.43766C18.1805 6.46284 18.2824 6.51578 18.3354 6.55372C18.4742 6.65372 18.61 6.75635 18.7436 6.86232C19.1563 7.19063 19.5347 7.55257 19.897 7.93566C19.9275 7.97276 19.9588 8.00902 19.9894 8.04612C20.0732 8.14917 20.1548 8.25318 20.2349 8.35969C20.4181 8.60315 20.5891 8.85466 20.7478 9.11504C20.8218 9.2364 20.8935 9.35952 20.9621 9.48365C20.9851 9.52609 21.0096 9.56842 21.0326 9.61166C21.0364 9.621 21.0404 9.63194 21.047 9.64669C21.1805 9.9681 21.3286 10.2805 21.4466 10.6086C21.5565 10.9132 21.654 11.2227 21.7398 11.5354C21.7891 11.7146 21.832 11.895 21.8759 12.0761C21.8883 12.1281 21.8959 12.3278 21.8888 12.124C21.8803 11.8764 21.9132 12.2553 21.9226 12.3107C22.1668 13.6774 22.2639 15.0545 22.2427 16.4422L22.2457 16.4396Z" fill="#F8F9FA"/>
<path d="M18.1327 6.43683C18.0856 6.41457 18.0971 6.41935 18.1327 6.43683V6.43683Z" fill="#F8F9FA"/>
<path d="M14.6147 9.333C14.4159 9.33488 14.2305 9.4023 14.072 9.51189C14.0306 9.46833 13.9794 9.43267 13.9184 9.40571C13.1926 9.08968 12.4659 8.97713 11.6948 9.20163C10.9652 9.41441 10.2538 9.87498 9.80506 10.4942C8.80123 11.8793 8.74849 13.7866 9.66976 15.2301C10.5364 16.5886 12.2883 17.4142 13.8864 17.1599C15.682 16.8742 17.1562 15.5795 17.6492 13.8225C18.2214 11.782 16.8792 9.31158 14.6155 9.33294L14.6147 9.333ZM15.2697 13.1376C15.271 13.1327 15.2533 13.2004 15.2441 13.2403C15.2308 13.278 15.2082 13.3437 15.2095 13.3396C15.15 13.4815 15.0812 13.6168 15.0042 13.7495C15.0042 13.7495 15.0042 13.7503 15.0035 13.7512C14.9728 13.7926 14.9414 13.834 14.909 13.8739C14.8348 13.9656 14.7546 14.0521 14.6709 14.1356C14.6706 14.1308 14.5373 14.2459 14.5008 14.2724C14.3943 14.3496 14.2827 14.4206 14.1682 14.4847C14.1154 14.5068 14.0627 14.5297 14.0098 14.5502C13.9001 14.5923 13.7891 14.6265 13.6771 14.6584C13.7325 14.6393 13.4815 14.6937 13.4188 14.6997C13.3061 14.7108 13.1946 14.7145 13.0819 14.7144C13.036 14.7088 12.9892 14.7025 12.9432 14.6953C12.8301 14.6768 12.7196 14.6509 12.6089 14.621C12.6624 14.6316 12.4177 14.5478 12.3681 14.5241C12.2657 14.476 12.1668 14.4212 12.0693 14.3632C12.0264 14.3326 11.9844 14.3019 11.9429 14.2695C11.8483 14.1953 11.7596 14.115 11.6738 14.0305C11.7068 14.057 11.5437 13.8722 11.5136 13.8295C11.4807 13.7821 11.4502 13.7338 11.4189 13.6855C11.4198 13.6871 11.3941 13.6392 11.3759 13.6084C11.3617 13.5758 11.338 13.523 11.3389 13.5245C11.3182 13.4683 11.2968 13.4138 11.2777 13.3575C11.2586 13.3011 11.2419 13.2446 11.2251 13.1874C11.2083 13.1309 11.2013 13.1105 11.1993 13.1043C11.2013 13.1097 11.2077 13.1213 11.2017 13.0705C11.1871 12.9522 11.1756 12.8344 11.172 12.7146C11.171 12.6658 11.17 12.6162 11.1713 12.5673C11.1723 12.5576 11.1745 12.5446 11.1765 12.5277C11.1915 12.4097 11.2121 12.2929 11.2391 12.1773C11.2792 12.0088 11.2735 12.0292 11.3449 11.8736C11.5329 11.4665 11.8548 11.1012 12.2832 10.8654C12.6624 10.6571 13.1179 10.4883 13.5598 10.4566C13.5539 11.0345 13.9228 11.4435 14.4687 11.6087C14.2957 11.5568 14.548 11.6464 14.5999 11.6684C14.6517 11.6904 14.7035 11.7116 14.754 11.7369C14.7689 11.7439 14.8355 11.7833 14.8746 11.8046C14.8965 11.8215 14.9201 11.839 14.9227 11.8413C14.9637 11.88 15.007 11.9171 15.0489 11.9566C15.0498 11.9573 15.0506 11.9581 15.0515 11.9588C15.0912 12.0121 15.1278 12.0672 15.1674 12.1205C15.1922 12.1548 15.2069 12.1706 15.2153 12.1772C15.217 12.1891 15.2216 12.2096 15.2319 12.2433C15.2537 12.3154 15.2809 12.3832 15.3011 12.4563C15.3016 12.4634 15.3029 12.4706 15.3043 12.4793C15.3129 12.5451 15.3167 12.6105 15.3229 12.6766C15.3228 12.6742 15.3247 12.7365 15.3267 12.7764C15.3238 12.8151 15.32 12.8746 15.32 12.8746C15.307 12.9628 15.2891 13.0489 15.2712 13.1359L15.2697 13.1376Z" fill="#F8F9FA"/>
</svg>
