<svg width="35" height="36" viewBox="0 0 35 36" fill="none" xmlns="http://www.w3.org/2000/svg">
<path d="M32.4972 0.298314C30.938 -0.336416 29.025 0.239232 27.9799 1.53584C27.0226 2.72386 26.9084 4.37177 27.4426 5.77057C27.7707 6.63125 28.3352 7.38175 28.9731 8.03803C29.2829 8.3566 29.6086 8.66638 29.9663 8.93145C30.2921 9.17256 30.6106 9.4576 31.0082 9.53744C31.2182 9.6564 31.5 9.6564 31.7252 9.5542C32.1787 9.34821 32.3551 8.82366 32.5667 8.4045C32.7887 7.96698 33.0194 7.53424 33.2509 7.10151C33.6813 6.29512 34.1292 5.46558 34.3424 4.56977C34.736 2.91388 34.1803 0.983344 32.4972 0.298314ZM32.5803 4.38294C32.3879 5.14462 32.0278 5.84402 31.6901 6.54821C31.5 6.94422 31.306 7.33863 31.1072 7.73065C31.033 7.87755 30.9563 8.01728 30.8901 8.1562C30.7072 7.96777 30.5244 7.78175 30.336 7.59811C29.8793 7.15261 29.4505 6.67835 29.1144 6.13304C28.542 5.2053 28.2018 3.97576 28.6673 2.92905C28.9004 2.4053 29.3731 2.06119 29.912 1.9055C30.4549 1.74901 31.0705 1.64921 31.6238 1.80091C32.7392 2.1075 32.8174 3.44243 32.5803 4.38135V4.38294Z" fill="#F8F9FA"/>
<path d="M31.2249 3.81302C31.1937 3.70205 31.1378 3.60544 31.0564 3.524L30.9239 3.42181C30.8217 3.36272 30.7115 3.33239 30.5933 3.33239C30.5031 3.32919 30.4193 3.34756 30.341 3.38907C30.2596 3.41542 30.1893 3.46093 30.1303 3.5248C30.0664 3.58388 30.0209 3.65414 29.9945 3.73558C29.9538 3.81382 29.9346 3.89765 29.9378 3.98787C29.9458 4.04616 29.9538 4.10364 29.961 4.16193C29.9921 4.2729 30.048 4.36951 30.1295 4.45095L30.262 4.55314C30.3642 4.61223 30.4744 4.64256 30.5925 4.64256C30.6828 4.64576 30.7666 4.6274 30.8448 4.58588C30.9263 4.55953 30.9965 4.51402 31.0556 4.45015C31.1195 4.39107 31.165 4.32081 31.1913 4.23937C31.2321 4.16113 31.2512 4.0773 31.248 3.98708C31.24 3.92879 31.2321 3.87131 31.2249 3.81302Z" fill="#F8F9FA"/>
<path d="M28.7197 22.0497C28.1025 19.4037 25.6658 17.8948 23.2378 17.1355C20.5536 16.2964 17.7025 16.1127 14.9097 15.9954C12.2023 15.882 9.4606 15.8716 6.85861 15.2696C6.23585 15.1251 5.60911 14.9383 5.09334 14.6732C4.52727 14.3818 4.23905 14.179 3.84304 13.7511C3.53485 13.4181 3.32408 13.062 3.20751 12.5966C3.15481 12.3866 3.13645 12.2341 3.14364 11.9403C3.15002 11.6824 3.18356 11.4796 3.27937 11.1562C3.92208 8.9782 6.51849 7.69756 8.52807 6.82491C10.7652 5.85405 13.1564 5.35984 15.5564 5.24726C18.0323 5.13069 20.437 5.34946 22.7979 5.96263C23.4007 6.11912 24.0187 6.20774 24.6295 6.3283C25.4941 6.49916 26.0722 5.33988 25.2498 4.85764C23.0047 3.54267 20.263 3.08279 17.6889 3.01493C15.1165 2.94786 12.5744 3.35904 10.1097 4.0776C7.6626 4.79137 5.10611 5.8796 3.17078 7.57461C1.14044 9.35185 0.0713817 12.4425 1.78316 14.8105C3.49653 17.1802 6.48256 17.7016 9.20272 18.0337C11.982 18.373 14.7883 18.3602 17.5748 18.6149C18.9161 18.7371 20.1616 18.9159 21.5285 19.2696C22.1368 19.4269 22.7341 19.6153 23.3201 19.8405C23.3408 19.8485 23.3544 19.8532 23.364 19.8572C23.4191 19.8812 23.4742 19.9059 23.5285 19.9307C23.6594 19.9906 23.7887 20.0536 23.9165 20.1199C24.1887 20.2604 24.453 20.4145 24.7069 20.587C24.7428 20.6117 24.881 20.7115 24.8897 20.7155C24.9816 20.7898 25.0718 20.8672 25.1588 20.9471C25.2618 21.0421 25.3616 21.1403 25.4566 21.2425C25.5053 21.2944 25.6889 21.5315 25.6642 21.4892C25.8023 21.6896 25.9269 21.898 26.0307 22.1175C26.0283 22.1207 26.0929 22.282 26.1073 22.3283C26.1576 22.4824 26.1983 22.6397 26.2319 22.7986C26.2446 22.86 26.255 22.9215 26.2654 22.9838C26.2654 22.9878 26.2654 22.991 26.2654 22.9958C26.267 23.1379 26.2854 23.2808 26.2862 23.4237C26.2869 23.5674 26.2814 23.7103 26.271 23.854C26.2686 23.8884 26.2646 23.9227 26.2614 23.957C26.2582 23.977 26.247 24.0624 26.2366 24.1191C26.1864 24.3834 26.1185 24.6445 26.0323 24.9C26.0059 24.9782 25.9772 25.0556 25.9476 25.1331C25.8838 25.2752 25.8135 25.4149 25.7376 25.5515C25.6674 25.6784 25.5931 25.8022 25.5133 25.9235C25.4806 25.973 25.356 26.1455 25.3249 26.1902C25.3017 26.2173 25.2722 26.2532 25.2706 26.2556C25.2155 26.3187 25.162 26.3818 25.1053 26.4441C25.0071 26.5519 24.9049 26.6564 24.7995 26.7578C24.6941 26.8592 24.5863 26.9574 24.4754 27.0532C24.4195 27.1012 24.362 27.1483 24.3053 27.1946C24.3053 27.1946 24.3045 27.1946 24.3037 27.1962C24.0498 27.3822 23.7863 27.5554 23.5133 27.7119C23.2754 27.8485 23.0311 27.9746 22.782 28.0896C22.7652 28.0976 22.6869 28.1327 22.6414 28.1534C22.6127 28.1654 22.5832 28.1782 22.5792 28.1798C22.4211 28.2413 22.263 28.3004 22.1033 28.3554C21.4885 28.567 20.8554 28.7203 20.2159 28.8337C20.0418 28.8648 19.867 28.8928 19.6913 28.9175C19.685 28.9183 19.681 28.9191 19.6754 28.9199C19.6634 28.9207 19.6418 28.9231 19.6059 28.9271C19.5309 28.9359 19.455 28.9447 19.38 28.9527C19.0023 28.9926 18.6231 29.0221 18.2438 29.0437C17.5341 29.0844 16.8235 29.098 16.1129 29.1059C14.683 29.1211 13.249 29.1107 11.8239 29.2433C11.9365 29.1507 12.0466 29.062 12.1528 28.9814C12.6526 28.599 13.174 28.27 13.6347 27.8389C14.3476 27.1714 13.6091 25.9131 12.679 26.1966C11.3424 26.6045 10.073 27.5858 9.02228 28.4864C7.94044 29.4133 6.64543 30.6125 7.03825 32.1982C7.23785 33.0053 7.85581 33.5858 8.63425 33.8357C9.24823 34.0329 9.92448 34.0113 10.56 34.0888C10.5153 34.0848 10.9049 34.1423 10.956 34.1511C11.0989 34.1758 11.2418 34.203 11.3848 34.2317C11.7177 34.2988 12.0474 34.3778 12.3748 34.4672C13.0766 34.6596 13.7528 34.9231 14.4506 35.1259C15.8311 35.5275 16.6917 33.5131 15.4311 32.801C14.7987 32.4441 14.1097 32.187 13.4031 31.9938C13.6722 31.9802 13.942 31.969 14.2111 31.9602C15.6315 31.9131 17.055 31.9147 18.473 31.7998C21.2738 31.573 24.0179 30.8888 26.2167 29.058C28.2327 27.379 29.3273 24.6437 28.7221 22.0513L28.7197 22.0497Z" fill="#F8F9FA"/>
</svg>
